<svg id="visual" viewBox="0 0 1485 4030" width="1485" height="4030" xmlns="http://www.w3.org/2000/svg" xmlns:xlink="http://www.w3.org/1999/xlink" version="1.1"><g><g transform="translate(994 524)"><path d="M0 -171.1L148.2 -85.6L148.2 85.6L0 171.1L-148.2 85.6L-148.2 -85.6Z" fill="#297EA6"></path></g><g transform="translate(1392 1721)"><path d="M0 -105L90.9 -52.5L90.9 52.5L0 105L-90.9 52.5L-90.9 -52.5Z" fill="#297EA6"></path></g><g transform="translate(691 3284)"><path d="M0 -113L97.9 -56.5L97.9 56.5L0 113L-97.9 56.5L-97.9 -56.5Z" fill="#297EA6"></path></g><g transform="translate(402 362)"><path d="M0 -138L119.5 -69L119.5 69L0 138L-119.5 69L-119.5 -69Z" fill="#297EA6"></path></g><g transform="translate(982 3699)"><path d="M0 -90L77.9 -45L77.9 45L0 90L-77.9 45L-77.9 -45Z" fill="#297EA6"></path></g><g transform="translate(664 1494)"><path d="M0 -144L124.7 -72L124.7 72L0 144L-124.7 72L-124.7 -72Z" fill="#297EA6"></path></g></g></svg>